<svg xmlns="http://www.w3.org/2000/svg" xmlns:xlink="http://www.w3.org/1999/xlink" width="70" height="70" viewBox="0 0 70 70"><defs><linearGradient id="linear-gradient" x1=".5" x2=".5" y2="1" gradientUnits="objectBoundingBox"><stop offset="0" stop-color="#8db661"/><stop offset="1" stop-color="#729f48"/></linearGradient><clipPath id="clip-path"><rect id="Rectangle_43" width="70" height="70" fill="url(#linear-gradient)" data-name="Rectangle 43" transform="translate(525 2424)"/></clipPath></defs><g id="Group_405" data-name="Group 405" transform="translate(-1325 -1848)"><g id="Group_404" data-name="Group 404"><g id="Icon" clip-path="url(#clip-path)" transform="translate(800 -576)"><g id="voucher" transform="translate(523.871 2422.871)"><path id="Path_19" fill="url(#linear-gradient)" d="M63.226,22.062V7.9H46.707l-5.87-5.032a7.231,7.231,0,0,0-9.415,0L25.551,7.9H9.032V22.062l-7.9,6.773V71.129h70V28.835ZM21.87,49.677,3.387,67.357V32Zm-4.935-23.71h1.129V23.71H16.935a1.129,1.129,0,1,1,0-2.258h.194a1.133,1.133,0,0,1,.8.331l1.605,1.605a3.267,3.267,0,0,0,0,2.9L17.928,27.9a1.135,1.135,0,0,1-.8.331h-.194a1.129,1.129,0,0,1,0-2.258Zm11.29-2.258H27.1v2.258h1.129a1.129,1.129,0,0,1,0,2.258h-.194a1.133,1.133,0,0,1-.8-.331L25.628,26.29a3.267,3.267,0,0,0,0-2.9l1.605-1.605a1.135,1.135,0,0,1,.8-.331h.194a1.129,1.129,0,0,1,0,2.258Zm-5.645,0a1.129,1.129,0,1,1-1.129,1.129A1.129,1.129,0,0,1,22.581,23.71Zm6.1,22.581h14.9L67.185,68.871H5.072Zm21.709,3.387L68.871,32v35.36ZM68.319,29.4l-5.093,4.871V25.035Zm-7.351,7.03L48.754,48.115l-4.269-4.083H27.773L23.71,47.918V32.241a10.385,10.385,0,0,1,2.258,6.146v3.387h2.258V38.387c0-3.529-1.6-5.875-2.882-7.76a10.738,10.738,0,0,1-1.494-2.653c.063-.026.121-.059.182-.088l1.605,1.605a3.362,3.362,0,0,0,2.395.992h.194a3.373,3.373,0,0,0,2.506-5.645,3.373,3.373,0,0,0-2.506-5.645h-.194a3.367,3.367,0,0,0-2.395.992l-1.605,1.605a3.31,3.31,0,0,0-.322-.131v-11.5H60.968ZM32.892,4.585a5.106,5.106,0,0,1,6.475,0L43.24,7.9H29.02Zm-11.44,5.576v11.5a3.365,3.365,0,0,0-.322.131l-1.605-1.605a3.37,3.37,0,0,0-2.395-.991h-.194a3.373,3.373,0,0,0-2.506,5.645,3.373,3.373,0,0,0,2.506,5.645h.194a3.367,3.367,0,0,0,2.395-.992l1.605-1.605c.061.029.119.062.182.088a10.738,10.738,0,0,1-1.494,2.653c-1.285,1.884-2.882,4.23-2.882,7.76h2.258a10.385,10.385,0,0,1,2.258-6.146V46.151L11.29,36.432V10.161ZM9.032,34.272,3.939,29.4l5.093-4.365Z" data-name="Path 19"/><path id="Path_20" fill="url(#linear-gradient)" d="M45.161,30.32v2.422h2.258V30.32a3.21,3.21,0,0,0,.476-5.941l-2.2-1.1a.964.964,0,0,1,.43-1.827h.329a.967.967,0,0,1,.965.964v.165h2.258v-.165a3.214,3.214,0,0,0-2.258-3.059V16.935H45.161v2.422a3.21,3.21,0,0,0-.476,5.941l2.2,1.1a.964.964,0,0,1-.43,1.827h-.329a.967.967,0,0,1-.965-.964V27.1H42.9v.165A3.216,3.216,0,0,0,45.161,30.32Z" data-name="Path 20"/><path id="Path_21" fill="url(#linear-gradient)" d="M46.29,37.258A12.419,12.419,0,1,0,33.871,24.839,12.434,12.434,0,0,0,46.29,37.258Zm0-22.581A10.161,10.161,0,1,1,36.129,24.839,10.172,10.172,0,0,1,46.29,14.677Z" data-name="Path 21"/><path id="Path_22" fill="url(#linear-gradient)" d="M47.419,39.516h2.258v2.258H47.419Z" data-name="Path 22"/><path id="Path_23" fill="url(#linear-gradient)" d="M42.9,39.516h2.258v2.258H42.9Z" data-name="Path 23"/><path id="Path_24" fill="url(#linear-gradient)" d="M38.387,39.516h2.258v2.258H38.387Z" data-name="Path 24"/><path id="Path_25" fill="url(#linear-gradient)" d="M51.935,39.516h2.258v2.258H51.935Z" data-name="Path 25"/><path id="Path_26" fill="url(#linear-gradient)" d="M27.1,55.323a3.387,3.387,0,1,0,3.387,3.387A3.391,3.391,0,0,0,27.1,55.323Zm0,4.516a1.129,1.129,0,1,1,1.129-1.129A1.129,1.129,0,0,1,27.1,59.839Z" data-name="Path 26"/><path id="Path_27" fill="url(#linear-gradient)" d="M36.129,55.323a3.387,3.387,0,1,0,3.387,3.387A3.391,3.391,0,0,0,36.129,55.323Zm0,4.516a1.129,1.129,0,1,1,1.129-1.129A1.129,1.129,0,0,1,36.129,59.839Z" data-name="Path 27"/><path id="Path_28" fill="url(#linear-gradient)" d="M45.161,55.323a3.387,3.387,0,1,0,3.387,3.387A3.391,3.391,0,0,0,45.161,55.323Zm0,4.516A1.129,1.129,0,1,1,46.29,58.71,1.129,1.129,0,0,1,45.161,59.839Z" data-name="Path 28"/><path id="Path_29" fill="url(#linear-gradient)" d="M5.645,38.387H7.9v2.258H5.645Z" data-name="Path 29"/><path id="Path_30" fill="url(#linear-gradient)" d="M5.645,47.419H7.9v2.258H5.645Z" data-name="Path 30"/><path id="Path_31" fill="url(#linear-gradient)" d="M5.645,42.9H7.9v2.258H5.645Z" data-name="Path 31"/><path id="Path_32" fill="url(#linear-gradient)" d="M64.355,49.677h2.258v2.258H64.355Z" data-name="Path 32"/><path id="Path_33" fill="url(#linear-gradient)" d="M64.355,54.194h2.258v2.258H64.355Z" data-name="Path 33"/><path id="Path_34" fill="url(#linear-gradient)" d="M64.355,58.71h2.258v2.258H64.355Z" data-name="Path 34"/></g></g></g></g></svg>